Title: Slash - Made In Stoke
General Information:
Genre: Music / Concert
Format: XVID DVDRIP
Year: 2011
Link: http://www.amazon.co.uk/Made-Stoke-24-11-DVD/dp/B005KLN056

Format                           : AVI
Format/Info                      : Audio Video Interleave
File size                        : 1.37 GiB
Duration                         : 2h 5mn
Overall bit rate                 : 1 560 Kbps
Writing application              : VirtualDubMod 1.5.4.1 (build 2178/release)
Writing library                  : VirtualDubMod build 2178/release

Video
ID                               : 0
Format                           : MPEG-4 Visual
Format profile                   : Advanced Simple@L5
Format settings, BVOP            : Yes
Format settings, QPel            : No
Format settings, GMC             : No warppoints
Format settings, Matrix          : Custom
Codec ID                         : XVID
Codec ID/Hint                    : XviD
Duration                         : 2h 5mn
Bit rate                         : 1 360 Kbps
Width                            : 608 pixels
Height                           : 352 pixels
Display aspect ratio             : 16:9
Frame rate                       : 29.970 fps
Color space                      : YUV
Chroma subsampling               : 4:2:0
Bit depth                        : 8 bits
Scan type                        : Progressive
Compression mode                 : Lossy
Bits/(Pixel*Frame)               : 0.212
Stream size                      : 1.19 GiB (87%)
Writing library                  : XviD 1.2.1 (UTC 2008-12-04)

Audio
ID                               : 1
Format                           : AC-3
Format/Info                      : Audio Coding 3
Mode extension                   : CM (complete main)
Codec ID                         : 2000
Duration                         : 2h 5mn
Bit rate mode                    : Constant
Bit rate                         : 192 Kbps
Channel(s)                       : 2 channels
Channel positions                : Front: L R
Sampling rate                    : 48.0 KHz
Bit depth                        : 16 bits
Compression mode                 : Lossy
Stream size                      : 172 MiB (12%)
Alignment                        : Aligned on interleaves
Interleave, duration             : 96 ms (2.88 video frames)
Interleave, preload duration     : 96 ms
Language                         : English


Description: Filmed at the Victoria Hall in Stoke On Trent on July 24th, this concert marked Slash s return to the town in which he grew up. The show came towards the end of his 2010/11 world tour in support of his debut solo album Slash . Lead vocals on the tour were handled by Myles Kennedy of Alter Bridge and the setlist featured tracks from his solo album, from his albums with both Slash s Snakepit and Velvet Revolver and classic songs that he co-wrote for Guns n Roses. Bonus Features Myles Kennedy interview / Slash interview / Uncle Ian featurette Set List 1) Been There Lately 2) Night Train 3) Ghost 4) Mean Bone 5) Back From Cali 6) Rocket Queen 7) Civil War 8) Nothing To Say 9) Starlight 10) Promise 11) Doctor Alibi 12) Speed Parade 13) Watch This 14) Beggars & Hangers On 15) Patience 16) Godfather Solo 17) Sweet Child O Mine 18) Slither 19) By The Sword 20) Mr Brownstone 21) Paradise City 
